<svg width="236" height="150" viewBox="0 0 236 150" fill="none" xmlns="http://www.w3.org/2000/svg">
<path d="M97.2942 46.9326H99.6239V60.3442L99.759 60.3743C99.867 60.1907 99.9781 60.0131 100.08 59.8265C101.936 56.3924 105.601 55.8265 108.492 56.8799C110.143 57.4819 110.951 58.8213 111.302 60.4676C111.422 61.0335 111.509 61.6174 111.512 62.1952C111.53 65.798 111.521 69.4007 111.521 73.0546C110.798 73.0546 110.077 73.0726 109.36 73.0305C109.264 73.0245 109.114 72.7054 109.114 72.5309C109.093 71.029 109.105 69.5301 109.102 68.0282C109.096 66.0207 109.102 64.0132 109.06 62.0056C109.048 61.4338 108.919 60.8529 108.762 60.2991C108.159 58.1531 106.343 57.4067 104.409 57.6204C102.203 57.8672 100.966 59.3299 100.329 61.3013C99.9901 62.3548 99.807 63.4955 99.774 64.6031C99.6959 67.2096 99.747 69.8191 99.747 72.4255C99.747 72.6272 99.747 72.8289 99.747 73.0335H97.2972V46.9296L97.2942 46.9326Z" fill="black"/>
<path d="M148.535 56.5609H150.192C150.312 57.5722 150.432 58.5835 150.573 59.7543C150.799 59.4232 150.97 59.2005 151.114 58.9627C153.422 55.1342 159.388 55.4713 161.774 58.1169C163.113 59.6008 163.765 61.3615 163.951 63.3028C164.185 65.7317 163.81 68.0463 162.441 70.129C160.264 73.4428 155.29 74.3036 152.312 71.8446C151.747 71.3781 151.303 70.7641 150.796 70.2133V80.1547H148.538V56.5579L148.535 56.5609ZM150.603 65.1599C150.754 65.8611 150.943 67.1975 151.339 68.4706C151.795 69.9334 152.651 71.1764 154.101 71.8536C155.896 72.6934 159.07 72.3352 160.429 69.3254C161.099 67.8446 161.318 66.2795 161.384 64.6843C161.453 62.9808 161.234 61.3194 160.454 59.7753C159.622 58.135 158.334 57.1207 156.464 57.0123C154.494 56.898 152.999 57.7558 151.96 59.4202C150.985 60.9762 150.678 62.7129 150.606 65.1599H150.603Z" fill="black"/>
<path d="M176.176 56.1817C180.487 56.1726 183.925 59.5075 184.123 64.1065C184.225 66.4691 183.781 68.6663 182.237 70.5233C180.307 72.8469 177.731 73.6415 174.816 73.4338C171.637 73.2081 169.202 71.6881 167.872 68.7686C166.542 65.8491 166.755 60.886 169.905 58.2554C171.649 56.7987 173.672 56.1666 176.176 56.1817V56.1817ZM181.433 64.4797C181.466 63.2366 181.25 61.8551 180.73 60.5338C179.935 58.5112 178.605 57.0665 176.317 56.91C173.987 56.7505 172.075 57.6264 171.039 59.7754C169.499 62.9657 169.358 66.2825 170.784 69.5542C171.685 71.6249 173.381 72.7024 175.654 72.7476C177.908 72.7897 179.424 71.6309 180.388 69.6686C181.163 68.0914 181.439 66.4029 181.433 64.4797V64.4797Z" fill="black"/>
<path d="M144.263 64.8047C144.2 68.1005 143.035 70.8153 140.018 72.4346C136.22 74.4722 130.543 73.7137 128.114 69.0696C127.334 67.5798 127.226 65.9424 127.289 64.3051C127.373 62.1802 128.033 60.2569 129.555 58.7129C131.405 56.8408 133.707 56.1606 136.28 56.1757C141.011 56.2058 144.35 60.0673 144.263 64.8047V64.8047ZM141.561 64.2178C141.576 63.2577 141.381 61.8943 140.87 60.588C140.24 58.9718 139.282 57.6505 137.535 57.1177C135.007 56.3472 132.404 57.4157 131.146 59.7784C130.093 61.7558 129.885 63.9138 130.027 66.111C130.129 67.6821 130.543 69.1599 131.432 70.4933C133.341 73.3646 138.216 73.7739 140.228 70.2164C141.204 68.4887 141.558 66.6166 141.564 64.2208L141.561 64.2178Z" fill="black"/>
<path d="M54.4894 59.5106C54.4834 58.7069 54.5914 58.0388 55.4441 57.5873C57.5396 56.4767 59.7131 55.8627 62.0758 56.3382C64.5466 56.8379 65.4713 58.8033 65.2101 60.871C64.8138 63.9891 64.3125 67.0953 63.8591 70.2074C63.8231 70.4482 63.8021 70.695 63.8201 70.9357C63.8982 72.0163 64.3305 72.537 65.3962 72.4316C65.4863 72.4226 65.5764 72.4406 65.6844 72.5309C64.9819 73.0877 64.1383 73.1419 63.2947 73.0757C61.9618 72.9734 61.5955 72.5791 61.2322 70.9779C60.6708 71.3993 60.1304 71.8176 59.575 72.2149C57.9989 73.3436 56.2096 73.6566 54.3423 73.4068C52.0876 73.1058 50.8988 71.1073 51.5022 68.8138C51.9766 67.017 53.1804 65.8492 54.7386 64.9824C56.678 63.9049 58.8245 63.4715 60.953 62.9839C62.5892 62.6076 62.6823 62.5324 62.7844 60.8559C62.8114 60.4286 62.8264 59.9861 62.7573 59.5647C62.5382 58.1983 61.6195 57.4699 60.1394 57.3315C58.113 57.1449 56.4558 57.9304 54.9607 59.1915C54.8316 59.2999 54.7085 59.4112 54.5794 59.5196C54.5704 59.5286 54.5434 59.5166 54.4954 59.5076L54.4894 59.5106ZM62.4121 63.339C60.4877 63.8838 58.6504 64.3082 56.9782 65.2231C55.4531 66.0569 54.4023 67.2487 54.1741 69.0426C53.9009 71.1916 54.8376 72.4768 57.3324 72.233C58.5303 72.1156 59.5 71.4685 60.4247 70.7552C61.0821 70.2495 61.5985 69.6777 61.5775 68.7657C61.5715 68.4527 61.6735 68.1396 61.7216 67.8266C61.9467 66.3699 62.1689 64.9131 62.4091 63.342L62.4121 63.339Z" fill="black"/>
<path d="M86.6695 57.789H84.2288C84.2888 57.4729 84.3368 57.2201 84.3909 56.9221H86.8076C86.9697 55.8145 87.1469 54.7491 87.27 53.6776C87.33 53.1629 87.4921 52.8378 88.0475 52.7024C88.678 52.5519 89.2844 52.2931 89.9989 52.0463C89.7497 53.6866 89.5156 55.2487 89.2634 56.8981H92.938C92.908 57.2231 92.89 57.4639 92.86 57.795C92.1274 57.795 91.4039 57.789 90.6834 57.795C90.182 57.801 89.5486 57.6505 89.2184 57.8973C88.9301 58.111 88.9692 58.7852 88.8941 59.2577C88.3958 62.4752 87.8944 65.6927 87.4201 68.9132C87.342 69.4459 87.36 69.9997 87.387 70.5415C87.4591 72.0253 88.4468 72.856 89.9329 72.7055C90.3352 72.6634 90.7375 72.6002 91.2959 72.5249C91.1097 72.7416 91.0347 72.9192 90.9176 72.9553C89.6867 73.3105 88.4228 73.5242 87.1559 73.2473C85.4897 72.8831 84.601 71.5558 84.8442 69.8071C85.1985 67.2879 85.6068 64.7747 85.991 62.2585C86.2132 60.7988 86.4323 59.342 86.6665 57.7859L86.6695 57.789Z" fill="black"/>
<path d="M118.952 73.0455H116.514V56.919C116.988 56.919 117.451 56.8889 117.907 56.9371C118.042 56.9521 118.222 57.1688 118.261 57.3223C118.477 58.2072 118.657 59.1011 118.892 60.1756C120.186 57.5511 122.155 56.2629 125.031 56.3321C124.95 57.1809 124.872 57.9905 124.806 58.6858C124.016 58.6015 123.254 58.4269 122.5 58.46C121.17 58.5202 120.255 59.2877 119.669 60.4616C119.06 61.6835 118.925 63.0018 118.931 64.3442C118.937 67.0079 118.946 69.6715 118.955 72.3352C118.955 72.5579 118.955 72.7837 118.955 73.0455H118.952Z" fill="black"/>
<path d="M72.3431 73.0516H69.8633C70.7069 67.6641 71.5415 62.3307 72.3821 56.9552H74.0603C74.1294 57.9635 74.1984 58.9598 74.2795 60.1246C75.1441 58.9297 75.9877 57.9154 77.1615 57.2502C78.3414 56.579 79.6113 56.2961 81.0103 56.3352C80.7911 57.199 80.587 58.0057 80.3648 58.8785C79.3561 58.3096 78.3354 58.2675 77.2996 58.6136C75.9277 59.0741 75.09 60.0975 74.5016 61.3646C73.8802 62.707 73.676 64.1547 73.4629 65.5994C73.0966 68.0794 72.7183 70.5595 72.3461 73.0486L72.3431 73.0516Z" fill="black"/>
<path d="M56.1553 50.3337L57.023 48.895C59.6319 50.3397 62.2227 51.7724 64.8106 53.205L64.7986 53.3525C64.6695 53.3676 64.5254 53.4308 64.4143 53.3917C61.6793 52.4075 58.9474 51.4142 56.2154 50.421C56.2034 50.415 56.1944 50.3939 56.1523 50.3337H56.1553Z" fill="black"/>
</svg>
